PathFileType	4	(X/Y/Z)	C:/Users/opensim2020/Desktop/walking_exp_matlab/subject02_walking10_straight_03.trc	
DataRate	CameraRate	NumFrames	NumMarkers	Units	OrigDataRate	OrigDataStartFrame	OrigNumFrames	
100.00	100.00	8	43	mm	100.00	2291	270	
Frame#	Time	LFHD			RFHD			LBHD			RBHD			C7			T10			CLAV			STRN			RBAK			LSHO			LUPA			LELB			LFRM			LWRA			LWRB			LFIN			RSHO			RUPA			RELB			RFRM			RWRA			RWRB			RFIN			LASI			RASI			LPSI			RPSI			LTHI			LKNE			LTIB			LANK			LHEE			LTOE			RTHI			RKNE			RTIB			RANK			RHEE			RTOE			*39			*40			*41			*42			
		X1	Y1	Z1	X2	Y2	Z2	X3	Y3	Z3	X4	Y4	Z4	X5	Y5	Z5	X6	Y6	Z6	X7	Y7	Z7	X8	Y8	Z8	X9	Y9	Z9	X10	Y10	Z10	X11	Y11	Z11	X12	Y12	Z12	X13	Y13	Z13	X14	Y14	Z14	X15	Y15	Z15	X16	Y16	Z16	X17	Y17	Z17	X18	Y18	Z18	X19	Y19	Z19	X20	Y20	Z20	X21	Y21	Z21	X22	Y22	Z22	X23	Y23	Z23	X24	Y24	Z24	X25	Y25	Z25	X26	Y26	Z26	X27	Y27	Z27	X28	Y28	Z28	X29	Y29	Z29	X30	Y30	Z30	X31	Y31	Z31	X32	Y32	Z32	X33	Y33	Z33	X34	Y34	Z34	X35	Y35	Z35	X36	Y36	Z36	X37	Y37	Z37	X38	Y38	Z38	X39	Y39	Z39	X40	Y40	Z40	X41	Y41	Z41	X42	Y42	Z42	X43	Y43	Z43	

102	1.010	1426.28052	-280.34909	1715.72583	1569.74683	-268.05811	1705.85583	1434.14075	-412.46637	1643.02759	1577.69385	-412.44049	1631.63220	1519.87683	-462.13922	1508.25928	1533.11682	-521.33118	1234.11328	1499.45410	-326.53452	1436.30261	1519.45874	-277.17148	1265.07593	1597.90454	-518.70813	1340.25061	1335.16321	-410.04944	1470.09082	1267.99048	-465.71347	1274.41528	1265.97107	-501.56778	1139.04358	1251.02515	-529.19946	1011.18188	1261.80774	-501.51266	874.46338	1245.33948	-553.34387	890.07654	1236.85071	-551.59680	823.18695	1699.07886	-366.01605	1484.67419	1793.19812	-352.05896	1295.21777	1811.82129	-299.92679	1156.18799	1819.95435	-232.16129	1055.28967	1786.43103	-149.60410	952.63470	1826.27844	-185.89510	933.54370	1820.77661	-128.55325	890.01233	1403.24866	-277.47336	977.90997	1662.10974	-297.89264	954.25818	1470.84607	-494.10883	1012.53210	1583.49353	-506.33984	1012.83630	1322.47839	-269.86429	678.55792	1351.24768	-231.95532	480.66513	1345.01685	-225.26003	286.72919	1361.69824	-144.84467	76.09527	1416.27490	-164.90565	39.53986	1343.24902	11.74232	76.86868	1707.33936	-432.62024	657.55591	1666.04980	-478.96741	452.27414	1663.37280	-577.19965	289.19562	1620.91345	-650.11243	109.80702	1561.99402	-692.61481	62.39093	1647.01282	-513.35382	33.42176	1520.57397	-372.09009	1788.83801	-3360.38306	2845.17310	1034.17566						 
103	1.020	1423.89990	-272.91995	1715.43103	1567.32300	-260.22137	1705.57373	1432.15198	-404.77527	1642.33167	1575.76733	-404.49744	1631.07690	1517.58130	-453.76718	1507.35278	1530.48315	-512.09302	1232.92908	1497.36279	-317.88593	1435.89221	1517.46350	-267.93750	1264.86914	1595.36267	-509.69589	1338.91638	1332.99268	-401.28305	1469.48999	1265.44580	-456.89569	1273.80444	1263.82764	-491.92236	1138.22070	1249.07593	-518.94177	1010.39777	1259.67371	-490.95001	873.38763	1243.35962	-543.24164	889.23065	1234.56555	-540.89722	822.18707	1696.86682	-357.97083	1484.25757	1791.00366	-344.14206	1294.87354	1809.29639	-292.66574	1155.48621	1817.46802	-224.99959	1054.54846	1784.16199	-142.24130	951.94464	1823.93677	-178.71048	932.86237	1818.32678	-121.49683	888.99438	1401.30872	-266.71088	978.35315	1660.06323	-288.27289	954.06635	1467.77649	-483.57556	1011.63861	1580.30347	-496.43893	1011.89886	1320.58118	-259.46436	677.66791	1350.00134	-223.42436	479.34741	1344.08887	-219.46313	285.17538	1361.85083	-142.56924	73.20333	1415.99634	-164.10008	37.18180	1345.26208	14.08075	72.51589	1706.08606	-424.74329	657.66681	1665.77100	-472.16394	452.55347	1663.03162	-572.92987	291.11151	1621.25659	-648.65228	112.68040	1562.45056	-691.72198	66.38674	1647.33911	-513.12518	33.44558	1518.46887	-364.65927	1788.19775	-3360.27759	2845.17578	1034.23157						 
104	1.030	1421.55554	-265.46539	1715.09131	1564.98242	-252.42929	1705.24548	1430.11487	-397.10294	1641.52271	1573.29797	-396.42941	1629.93665	1515.22034	-445.44516	1506.39832	1527.67517	-502.73889	1231.65955	1495.23889	-309.17737	1435.47815	1515.37561	-258.59552	1264.63928	1593.41418	-501.49487	1338.35339	1330.83057	-392.47067	1468.90845	1263.52588	-446.86215	1272.89429	1261.65234	-482.01456	1137.44043	1246.93054	-508.75891	1009.60529	1257.34814	-480.45538	872.66040	1241.11609	-532.75824	888.50983	1232.13232	-530.57312	821.32898	1694.60474	-349.97488	1483.77625	1788.91748	-336.11600	1294.70813	1807.14490	-285.15921	1155.09851	1815.51099	-217.63461	1053.98059	1781.86780	-135.18263	951.10968	1821.65613	-171.64474	932.10144	1816.11792	-114.27993	888.20245	1399.29297	-255.61542	978.85876	1657.88147	-278.25607	953.93396	1464.61255	-473.02328	1010.76508	1576.90991	-486.19403	1010.83893	1318.65625	-249.20361	676.67737	1348.63171	-215.29326	477.75244	1342.99829	-213.93800	283.39734	1361.96692	-140.78232	70.14555	1415.43506	-163.29448	34.36371	1347.36304	16.08104	67.93905	1704.78601	-416.63821	657.85236	1665.45862	-465.00333	452.79391	1662.51685	-568.37366	293.06195	1621.63269	-646.98242	115.92131	1562.71265	-690.90973	70.51603	1647.68103	-512.88306	33.55233	1516.37244	-357.26266	1787.49231	-3357.44507	2845.77734	1034.17432						 
105	1.040	1419.13562	-258.07654	1714.63538	1562.49048	-244.62277	1704.80774	1427.93945	-389.33139	1640.57947	1571.46045	-388.15762	1629.08789	1512.76245	-437.09558	1505.30847	1524.61487	-493.26773	1230.21179	1493.03247	-300.45218	1434.97156	1513.19373	-249.08148	1264.37708	1590.45251	-492.30896	1336.73193	1328.53125	-383.54413	1468.28760	1261.08508	-437.20523	1272.28015	1259.32703	-471.86798	1136.58252	1244.47827	-498.21414	1008.63849	1255.03540	-469.70026	871.85284	1238.60059	-521.66870	887.25745	1230.04297	-519.28534	820.26599	1692.20972	-342.04529	1483.22546	1786.39185	-328.43457	1294.26257	1804.86011	-278.00247	1154.45300	1813.02405	-210.74187	1053.15784	1779.62305	-128.21381	950.19324	1819.40735	-164.70885	931.26752	1813.66882	-107.63193	887.01917	1397.16003	-244.24641	979.30487	1655.55835	-268.00992	953.82782	1461.01978	-461.97717	1009.70673	1573.20422	-475.62308	1009.71301	1316.72375	-239.17242	675.49847	1347.12854	-207.55382	475.99112	1341.98877	-208.75768	281.37439	1362.23718	-138.86417	67.08727	1415.32898	-162.07649	32.89007	1349.26233	18.42349	62.03739	1703.32751	-408.37231	658.00470	1665.26941	-457.57861	453.26941	1662.30164	-563.74274	295.34225	1621.98865	-645.13434	119.25131	1562.90173	-689.00391	74.36378	1647.99866	-512.61829	33.52641	1514.18701	-349.91043	1786.73181	-3360.34302	2845.08154	1034.00464						 
106	1.050	1416.62000	-250.61859	1714.31165	1560.01636	-236.78096	1704.49719	1425.82764	-381.58563	1639.67212	1569.05530	-380.30014	1628.29749	1510.29175	-428.84979	1504.15857	1521.38281	-483.80209	1228.83362	1490.76794	-291.64761	1434.47437	1510.88928	-239.55038	1264.17822	1587.55591	-483.50800	1335.34314	1326.17200	-374.50397	1467.67188	1258.37451	-427.69809	1271.54688	1256.74414	-461.83902	1135.69116	1242.10889	-487.27866	1007.39960	1252.90369	-458.24197	870.82800	1236.17529	-510.63330	886.11639	1227.54993	-508.06961	819.17517	1689.78796	-334.17203	1482.65125	1784.07166	-320.71207	1293.80994	1802.40161	-271.20300	1153.52759	1810.85388	-203.84595	1052.24377	1777.40955	-121.37376	949.14148	1817.25024	-157.87036	930.29004	1811.34155	-100.84782	885.96332	1394.99939	-232.72130	979.73743	1652.99902	-257.39471	953.76129	1457.13074	-450.81467	1008.49890	1569.30542	-464.88855	1008.37408	1314.81018	-229.16711	674.42108	1344.94092	-200.56912	474.42896	1341.65320	-203.39893	279.45795	1362.01392	-135.23946	66.59871	1414.82886	-159.91461	35.19299	1348.95190	22.92612	52.93707	1701.59290	-400.06277	657.94128	1664.81287	-449.91751	453.56073	1661.97632	-558.74109	297.72150	1622.50281	-643.08270	122.92552	1563.44214	-687.08252	78.89896	1648.35095	-512.31219	33.56301	1511.98621	-342.57254	1785.91248	-3360.24414	2845.12671	1034.15735						 
107	1.060	1414.14319	-243.04112	1714.49756	1557.44983	-228.89238	1704.55334	1423.54736	-373.63770	1639.00745	1566.70215	-371.80844	1627.27502	1507.63904	-420.71777	1503.09338	1517.84595	-474.28091	1227.91272	1488.38123	-282.90045	1434.11902	1508.59180	-230.19254	1264.25391	1583.89893	-474.63431	1333.94800	1323.55762	-365.43723	1467.05188	1255.46960	-418.14816	1270.78613	1254.01440	-451.45590	1134.63184	1239.02368	-477.12421	1006.35223	1250.22510	-446.99084	869.88879	1233.84485	-499.55743	885.15521	1224.91455	-496.47546	817.94019	1687.30811	-326.39474	1481.80872	1781.81165	-312.93369	1293.34766	1800.31677	-264.19141	1152.68652	1809.03955	-196.91843	1051.36536	1775.19690	-114.71835	948.00897	1815.14587	-151.09576	929.20801	1808.83643	-94.41594	884.33069	1392.64063	-221.20692	980.05286	1650.52710	-246.78387	953.55267	1453.02271	-439.37030	1007.33276	1565.26831	-454.14520	1006.95892	1312.67700	-219.58611	674.49622	1342.17200	-194.14827	473.86615	1341.98291	-196.89056	278.65714	1359.80579	-129.39977	66.61172	1412.20032	-156.51237	37.15427	1349.09143	28.62501	46.55441	1700.21130	-390.86526	658.41571	1664.82678	-441.50516	454.47226	1661.68054	-553.24115	300.29163	1623.17773	-640.55402	127.00076	1563.94690	-685.37616	84.44610	1648.54773	-511.89780	33.73161	1509.98914	-335.03784	1785.57922	-3360.36475	2845.12085	1034.31274						 
108	1.070	1411.59265	-235.54144	1714.85547	1554.87305	-220.98160	1704.91333	1421.27026	-365.76849	1638.84192	1564.47583	-363.70462	1627.26233	1504.83105	-412.58725	1502.43066	1514.37439	-464.62903	1227.10681	1485.98853	-274.26102	1434.10266	1506.22974	-220.92278	1264.49670	1580.69849	-465.72913	1333.02344	1320.79138	-356.35150	1466.51770	1252.61450	-407.81769	1269.92114	1251.21655	-441.02747	1133.59753	1236.60913	-465.87256	1005.35291	1247.57324	-435.33887	869.06036	1230.98401	-487.86636	883.66278	1222.28003	-484.63748	816.87207	1685.10828	-318.73364	1481.11487	1779.19067	-305.52304	1292.39111	1798.03491	-257.51968	1151.57544	1806.53857	-190.49516	1049.94238	1773.07336	-108.07857	946.69055	1813.00195	-144.50987	928.03644	1806.50378	-87.78802	882.92072	1390.10132	-209.58873	980.36530	1647.82007	-235.81430	953.30438	1448.87097	-427.96655	1006.63855	1561.06384	-443.41309	1005.46155	1310.16382	-209.84561	675.36224	1338.92102	-186.85280	474.17636	1341.20471	-188.90849	279.15927	1357.75000	-123.38475	66.32407	1410.64282	-153.88910	38.44750	1347.64746	33.33702	43.24492	1698.49280	-381.41812	658.72174	1664.53931	-432.35931	455.04507	1661.41870	-547.15002	303.19742	1623.83521	-637.43073	131.57880	1564.72241	-682.49866	89.77501	1648.89172	-511.44934	33.77408	1507.70337	-327.64014	1785.43616	-3357.44214	2845.72827	1034.19519						 
109	1.080	1408.98462	-227.91934	1715.32581	1552.27161	-213.02602	1705.36243	1418.96240	-357.88931	1638.85950	1562.42749	-355.26340	1627.29724	1501.94397	-404.18945	1502.26208	1511.05310	-454.96124	1226.51929	1483.60327	-265.73645	1434.32104	1503.74829	-211.69688	1265.00842	1577.19666	-456.99869	1332.19409	1317.96191	-347.21075	1466.10034	1249.72681	-397.65366	1268.79529	1248.26477	-430.29279	1132.57141	1233.73425	-454.51196	1004.25452	1245.17615	-423.18777	867.88934	1228.29907	-475.56451	882.46924	1219.66016	-472.30359	815.55450	1682.83887	-311.06131	1480.61157	1776.77795	-298.15793	1291.44043	1795.77454	-250.91652	1150.49426	1804.38953	-184.06828	1048.74695	1770.89209	-101.79144	945.35059	1810.83691	-138.25389	926.80273	1804.25623	-81.72507	881.51294	1387.54871	-198.01930	980.81018	1644.97522	-224.69931	952.94165	1444.97681	-416.75073	1006.65588	1556.98779	-432.77606	1004.05511	1308.43689	-200.02910	676.44958	1336.28455	-178.08875	475.47369	1336.08411	-181.79181	280.28525	1357.76013	-121.97584	66.15457	1410.62085	-152.66161	38.36042	1346.19836	34.29697	40.02191	1696.71375	-371.63080	659.23737	1664.56079	-422.62756	455.89465	1661.30981	-540.34570	306.43048	1624.59375	-634.06592	136.48245	1565.27332	-679.39532	96.04389	1649.27148	-510.90491	33.86606	1505.13318	-320.26712	1785.45654	-3360.36401	2845.12231	1034.05359						 
